<svg xmlns="http://www.w3.org/2000/svg" width="180" height="180">
  <path d="M17.03 179.82c-2.42-.58-3.32-3-2.13-5.7.21-.49.35-.89.29-.89s-1.33.7-2.84 1.53c-4.6 2.57-8.25 4.08-10.68 4.4l-1.03.14.13-1.04c.33-2.42 1.83-6.08 4.4-10.67.84-1.5 1.53-2.78 1.53-2.84 0-.06-.4.07-.88.29-2.77 1.22-5.14.29-5.71-2.26-.34-1.52.14-3.05 1.13-3.58.35-.19.58-.2.82-.05.56.36.4.94-.36 1.32-.83.42-1.04 1-.77 2.2.48 2.13 2.6 2.73 5.03 1.4a9.1 9.1 0 0 0 3.4-3.78c2.75-5.27 1.94-11.23-1.75-12.9-1-.45-2.53-.48-3.34-.06-.74.38-1.36 1.67-1.37 2.83 0 .74.07.88.6 1.15.9.47 1.31 1.2 1.03 1.82-.53 1.17-2.03.05-2.46-1.84a5.25 5.25 0 0 1 .64-3.89c1.41-1.99 5.02-1.78 7.2.4 2.11 2.1 2.63 6.21 1.4 11.05-.6 2.28-1.26 3.86-3.84 9.08-2.75 5.56-3.88 8.06-3.7 8.24.17.17 2.68-.95 8.24-3.7 5.22-2.59 6.8-3.25 9.09-3.83 4.83-1.24 8.94-.72 11.04 1.38 2.2 2.19 2.4 5.8.4 7.2-.94.68-2.55.94-3.88.64-1.9-.42-3.02-1.92-1.84-2.46.61-.28 1.35.14 1.81 1.04.27.52.42.6 1.16.6 1.16-.01 2.45-.64 2.83-1.38.42-.8.39-2.34-.06-3.33-1.68-3.7-7.64-4.5-12.9-1.75a9.1 9.1 0 0 0-3.8 3.4c-1.32 2.43-.73 4.55 1.41 5.03 1.2.26 1.79.06 2.2-.77.38-.77.96-.93 1.32-.37.15.25.14.47-.05.82-.52.98-2.2 1.5-3.71 1.13zm38.83.04c-1.27-.32-1.9-.91-1.9-1.8 0-.92.97-.75 1.45.25.36.77.97.97 2.1.72 3.05-.69 2.81-4.68-.42-7.24-3.02-2.38-7.97-3.49-11.14-2.48-2.4.76-4 2.66-4 4.77 0 1.83.86 2.73 2.8 2.9 1.1.1 1.16.08 1.43-.45.6-1.24 1.97-1.64 2.28-.68.17.55-.33 1.26-1.2 1.67-2.31 1.1-5.36.22-6.1-1.75a5.68 5.68 0 0 1 .35-4.04c1.35-2.85 4.48-4.13 9-3.67 3.6.36 5.84 1.17 12.6 4.54 8.34 4.16 11.47 5.27 14.88 5.31 1.96.02 2.19-.02 3.4-.6 3.57-1.7 4.94-5.04 3.15-7.7-1.05-1.55-3.39-2.08-5.24-1.19-.9.44-.91.47-.91 1.39 0 1.33-.73 1.87-1.5 1.1-.56-.57-.38-1.52.45-2.33 2.93-2.86 7.68-1.76 8.79 2.03.4 1.37.26 2.66-.44 4.04-1.62 3.19-5.63 5-10.4 4.72-3.67-.21-7.01-1.4-12.49-4.44-1.69-.93-3.1-1.7-3.14-1.7-.04 0 .12.43.35.95.6 1.34.58 3.14-.03 4.13-.73 1.19-2.66 1.91-4.12 1.55zm32.84-.13a36.88 36.88 0 0 1-5.27-1.79c-.06-.06 0-.22.13-.35.19-.19.65-.1 2.09.4 3.33 1.16 4.13 1.27 5.9.85.86-.2 2.2-.62 3-.91 1.37-.5 2.06-.55 2.06-.12 0 .33-4.05 1.68-6.21 2.09a6.11 6.11 0 0 1-1.7-.17zm33.64.13a3.63 3.63 0 0 1-2.32-1.55c-.61-1-.63-2.8-.03-4.13.23-.52.4-.95.35-.95-.04 0-1.45.77-3.14 1.7-5.48 3.04-8.82 4.23-12.49 4.44-4.77.29-8.78-1.53-10.4-4.72a5.22 5.22 0 0 1-.44-4.04c1.11-3.79 5.86-4.89 8.8-2.03.82.8 1 1.76.43 2.34-.76.76-1.49.22-1.49-1.11 0-.92-.02-.95-.91-1.39-1.85-.9-4.19-.36-5.24 1.19-1.79 2.66-.42 6 3.15 7.7 1.21.58 1.45.62 3.4.6 3.41-.04 6.54-1.15 14.87-5.31 6.77-3.37 9-4.18 12.6-4.54 4.53-.46 7.66.82 9 3.67.62 1.3.77 2.97.36 4.04-.74 1.97-3.79 2.84-6.1 1.75-.87-.41-1.37-1.12-1.2-1.67.3-.96 1.68-.56 2.28.68.27.53.32.55 1.43.45 1.94-.17 2.8-1.07 2.8-2.9 0-2.1-1.6-4.01-4-4.77-3.17-1-8.12.1-11.14 2.48-3.23 2.56-3.47 6.55-.42 7.24 1.13.25 1.74.05 2.1-.72.48-1 1.45-1.17 1.45-.25 0 .98-.83 1.64-2.3 1.84-.44.06-1.07.04-1.4-.04zm38.64 0c-1.3-.32-2.19-1.32-1.77-1.99.36-.56.94-.4 1.32.37.41.83 1 1.03 2.2.77 2.14-.48 2.73-2.6 1.4-5.03a9.1 9.1 0 0 0-3.78-3.4c-5.27-2.75-11.23-1.94-12.9 1.75-.46 1-.49 2.52-.07 3.33.38.74 1.67 1.37 2.83 1.37.74 0 .89-.07 1.16-.6.46-.89 1.2-1.3 1.81-1.03 1.18.54.06 2.04-1.84 2.46-1.33.3-2.94.04-3.88-.63-2-1.42-1.8-5.02.4-7.2 2.1-2.11 6.21-2.63 11.04-1.4 2.29.59 3.87 1.25 9.1 3.84 5.55 2.75 8.06 3.87 8.23 3.7.18-.18-.95-2.68-3.7-8.24-2.58-5.22-3.25-6.8-3.83-9.08-1.24-4.84-.72-8.94 1.38-11.05 2.2-2.18 5.8-2.39 7.21-.4.67.94.94 2.55.64 3.89-.43 1.89-1.93 3.01-2.46 1.84-.28-.62.14-1.35 1.03-1.82.53-.27.6-.41.6-1.15 0-1.16-.63-2.45-1.37-2.83a4.44 4.44 0 0 0-3.34.06c-3.7 1.67-4.5 7.63-1.74 12.9a9.1 9.1 0 0 0 3.39 3.78c2.43 1.33 4.55.74 5.03-1.4.27-1.2.06-1.78-.77-2.2-.76-.38-.92-.96-.36-1.32.24-.15.47-.14.82.05.99.53 1.47 2.06 1.13 3.58-.57 2.55-2.94 3.48-5.71 2.26-.49-.22-.88-.35-.88-.29s.69 1.33 1.53 2.84c2.57 4.59 4.07 8.25 4.4 10.67l.13 1.04-1.03-.14c-2.43-.32-6.09-1.83-10.68-4.4a55.68 55.68 0 0 0-2.84-1.53c-.06 0 .08.4.29.89 1.22 2.75.3 5.12-2.22 5.7-1 .23-1.06.23-1.9.03zM37.2 177.58c-.46-.6-2.32-3.84-2.32-4.05 0-.26 2.24-4.07 2.48-4.22.16-.1 2.66 3.85 2.65 4.2 0 .21-2.43 4.32-2.55 4.32-.03 0-.15-.12-.26-.25zm104.06-1.8a17.13 17.13 0 0 1-1.25-2.28c-.01-.36 2.48-4.29 2.65-4.19a31.2 31.2 0 0 1 2.48 4.21c0 .26-2.25 4.07-2.48 4.21-.09.06-.72-.82-1.4-1.95zm-62.32.24c-1.78-.81-5.24-2.14-10.67-4.11-1.14-.41-1.58-.77-1.43-1.16.17-.44 1.06-.42 1.38.04.15.2.76.53 1.37.73 3.97 1.29 12.41 4.76 12.41 5.1 0 .16-.51.42-.77.4-.07-.02-1.1-.46-2.29-1zm19.33.87c-.14-.05-.25-.17-.25-.26 0-.35 8.41-3.81 12.41-5.11.6-.2 1.22-.53 1.37-.73.32-.46 1.2-.48 1.38-.04.15.4-.29.75-1.43 1.16-5.34 1.94-8.91 3.3-10.75 4.13-2.3 1.02-2.31 1.02-2.73.85zM6.1 172.84c0-.54.12-1.24.25-1.54.24-.54.26-.51.35.64l.1 1.2 1.2.1c1.15.09 1.17.1.64.34-.3.14-1 .25-1.55.25H6.1zm10.66.74c.07-.19 1.83-.26 7.73-.3 6.71-.05 7.64-.02 7.64.25s-.96.3-7.72.3c-6.1 0-7.71-.05-7.65-.25zm25.99-.05c0-.26.93-.3 7.64-.25 5.9.04 7.66.11 7.72.3.07.2-1.55.25-7.64.25-6.76 0-7.72-.03-7.72-.3zm23.42 0c-.45-.26-.28-.28 1.9-.28 1.52.01 2.67.11 3.1.28.65.25.5.27-1.9.28-1.9 0-2.73-.07-3.1-.28zm10.31 0c-.53-.25-.1-.28 3.78-.29 3.4 0 4.35.05 4.28.24-.12.38-7.24.42-8.06.05zm10.24 0c.1-.25.66-.3 3.28-.3 2.62 0 3.18.05 3.28.3.1.26-.35.3-3.28.3-2.93 0-3.38-.04-3.28-.3zm8.82.17c-.4-.4.25-.47 4.22-.46 4 0 4.3.03 3.68.3-.5.22-1.55.3-4.22.3-1.95 0-3.6-.07-3.68-.14zm13.28-.17a11.7 11.7 0 0 1 3.1-.28c2.19 0 2.36.02 1.9.28-.36.21-1.2.29-3.1.28-2.4 0-2.54-.03-1.9-.28zm13.07.05c.06-.19 1.82-.26 7.72-.3 6.71-.05 7.64-.02 7.64.25s-.96.3-7.72.3c-6.1 0-7.7-.05-7.64-.25zm25.98-.05c0-.27.93-.3 7.64-.25 5.9.04 7.66.11 7.73.3.06.2-1.56.25-7.65.25-6.76 0-7.72-.03-7.72-.3zm23.42 0c-.47-.26-.44-.27.7-.33l1.2-.07.1-1.2c.1-1.14.12-1.17.36-.63.13.3.25 1 .25 1.54v1l-1.05-.01c-.58 0-1.28-.14-1.56-.3zm-165.19-18c0-6.75.04-7.72.3-7.72.27 0 .3.94.26 7.64-.05 5.9-.11 7.66-.3 7.72-.2.07-.26-1.55-.26-7.63zm167.33 7.56c-.07-.07-.13-3.54-.13-7.7 0-6.6.04-7.58.3-7.58s.3 1 .3 7.7c0 4.25-.08 7.71-.17 7.71a.5.5 0 0 1-.3-.13zm-169-19.07a28.44 28.44 0 0 1-2.16-1.36c-.14-.14.48-.62 1.86-1.46a17.34 17.34 0 0 1 2.3-1.26c.36 0 4.29 2.49 4.18 2.66-.07.11-3.28 2.09-4.12 2.53-.06.03-1-.47-2.07-1.1zm167.19 0a28.69 28.69 0 0 1-2.16-1.36c-.13-.13.5-.63 1.85-1.46 1.12-.7 2.14-1.26 2.26-1.26.38 0 4.34 2.49 4.24 2.66a62 62 0 0 1-4.13 2.53c-.06.03-.99-.47-2.06-1.1zm-167.63-5.3c-1.85-.8-2.63-3.8-1.56-6.05.6-1.26 1.86-1.63 2.18-.64.16.52-.42 1.36-1.2 1.74-.54.27-.56.32-.46 1.45.19 2.05 1.21 2.91 3.24 2.74a4.66 4.66 0 0 0 3.67-2.36c.9-1.49 1.1-2.38 1.1-4.5-.04-5.15-2.98-9.97-6.54-10.7-1.85-.39-3.13.36-3.51 2.04-.26 1.13-.05 1.74.71 2.1 1 .48 1.17 1.46.25 1.46-1.62 0-2.44-2.74-1.41-4.74.87-1.7 3.15-2.27 5.3-1.32.52.24.94.4.94.36 0-.04-.76-1.46-1.7-3.14-3.04-5.48-4.23-8.82-4.44-12.49-.28-4.77 1.54-8.78 4.72-10.4a5.23 5.23 0 0 1 4.04-.43c3.8 1.1 4.9 5.86 2.04 8.79-.81.83-1.77 1-2.34.43-.76-.76-.22-1.48 1.1-1.48.93 0 .96-.03 1.39-.9.9-1.85.37-4.2-1.18-5.25-2.66-1.8-6.01-.43-7.71 3.14-.58 1.22-.62 1.45-.6 3.4.04 3.41 1.16 6.54 5.32 14.87 3.4 6.82 4.23 9.13 4.54 12.7.4 4.57-.83 7.55-3.67 8.9-1.35.64-3.13.76-4.22.28zm167.8-.28c-2.85-1.35-4.12-4.48-3.67-9 .36-3.6 1.17-5.84 4.54-12.6 4.16-8.33 5.28-11.46 5.32-14.86.02-1.96-.02-2.2-.6-3.4-1.7-3.58-5.05-4.94-7.7-3.15-1.56 1.04-2.1 3.38-1.2 5.23.44.9.47.92 1.4.92 1.32 0 1.86.72 1.1 1.48-.57.58-1.53.4-2.34-.43-2.85-2.93-1.76-7.68 2.04-8.8a5.23 5.23 0 0 1 4.04.45c3.18 1.61 5 5.62 4.72 10.4-.21 3.66-1.4 7-4.44 12.48-.94 1.68-1.7 3.1-1.7 3.14 0 .04.42-.12.95-.36 1.33-.6 3.13-.58 4.12.03 2.27 1.4 2.08 6.03-.24 6.03-.92 0-.75-.98.25-1.45.76-.37.97-.98.71-2.1-.68-3.05-4.68-2.82-7.23.42-2.39 3.01-3.5 7.96-2.5 11.13.77 2.4 2.68 4 4.79 4 1.83 0 2.72-.86 2.9-2.8.1-1.1.08-1.16-.46-1.43-1.23-.6-1.64-1.97-.67-2.28.55-.17 1.25.33 1.66 1.2 1.1 2.31.23 5.36-1.74 6.1-1.08.4-2.75.26-4.05-.35zM6.1 129.48c0-6.09.06-7.7.25-7.64.2.07.26 1.83.3 7.72.05 6.71.02 7.64-.24 7.64-.27 0-.3-.96-.3-7.72zm167.24.08c.05-5.9.11-7.65.3-7.72.2-.06.26 1.55.26 7.64 0 6.76-.04 7.72-.3 7.72-.27 0-.3-.93-.26-7.64zM6.35 113.72c-.16-.36-.24-1.46-.23-3.1.01-2.46.02-2.52.3-1.74.4 1.08.33 5.71-.07 4.84zm166.97-1.84c0-1.51.1-2.66.28-3.1.25-.64.27-.5.28 1.9 0 1.9-.07 2.74-.28 3.1-.26.46-.29.28-.28-1.9zm-164.98.57a16.4 16.4 0 0 1-.74-1.87c-.66-2.04-2.84-7.69-3.78-9.79-.85-1.9-1.02-2.82-.53-2.82.35 0 3.81 8.4 5.12 12.41.2.6.53 1.23.74 1.37.47.34.41 1.3-.08 1.4-.23.04-.47-.2-.73-.7zm162.29.6c-.27-.26-.13-1.05.23-1.3.2-.15.53-.76.73-1.37 1.3-4.02 4.77-12.4 5.12-12.4.49 0 .32.91-.53 2.81-.94 2.1-3.12 7.75-3.78 9.8-.7 2.12-1.29 2.95-1.77 2.46zm-164.3-9.82c-.34-1.04-.23-7.7.12-7.8.2-.07.25.86.25 4.23a69 69 0 0 1-.06 4.32c-.04 0-.18-.34-.32-.75zM173.3 99.7c0-3.41.05-4.35.25-4.29.4.13.45 7.07.06 7.97-.28.64-.3.36-.3-3.68zm-172-4.89C0 91.22-.17 90.08.35 88.07c.47-1.82 1.56-4.7 1.77-4.7.43 0 .4.68-.11 2.05-.3.8-.7 2.14-.91 3a4.58 4.58 0 0 0 0 3.1c.2.85.61 2.2.9 3 .51 1.36.55 2.05.12 2.05-.1 0-.47-.79-.82-1.75zm176.27 1.45c-.06-.17.13-.96.42-1.75.3-.8.7-2.15.91-3 .36-1.51.36-1.6 0-3.1-.2-.86-.61-2.2-.9-3-.51-1.37-.55-2.06-.12-2.06.21 0 1.3 2.9 1.77 4.7.52 2.02.36 3.16-.95 6.76-.62 1.71-.9 2.06-1.13 1.45zM6.1 89.97c0-2.93.04-3.38.3-3.28.25.1.3.65.3 3.28 0 2.62-.05 3.18-.3 3.27-.26.1-.3-.34-.3-3.27zm167.45 3.27c-.19-.08-.25-.92-.25-3.27 0-2.63.05-3.18.3-3.28.26-.1.3.35.3 3.28 0 1.87-.02 3.4-.05 3.38-.03 0-.17-.06-.3-.11zM6.5 86.18C2.6 84.98.24 80.64.56 75.26c.21-3.67 1.4-7 4.44-12.48.94-1.69 1.7-3.1 1.7-3.14 0-.04-.42.12-.95.35-1.33.6-3.13.58-4.12-.03-2.27-1.4-2.08-6.02.24-6.02.92 0 .75.97-.25 1.45-.76.36-.97.97-.71 2.1.68 3.04 4.68 2.81 7.23-.42 2.39-3.02 3.5-7.96 2.5-11.14-.77-2.4-2.68-4-4.79-4-1.83 0-2.72.86-2.9 2.8-.1 1.1-.08 1.17.46 1.43 1.23.6 1.64 1.97.67 2.28-.55.17-1.25-.33-1.66-1.2-1.1-2.3-.23-5.35 1.74-6.1a5.68 5.68 0 0 1 4.05.36c2.84 1.34 4.07 4.33 3.67 8.89-.31 3.57-1.14 5.89-4.54 12.7-4.16 8.34-5.28 11.46-5.32 14.87-.02 1.96.02 2.19.6 3.4 1.7 3.57 5.05 4.94 7.7 3.15 1.56-1.05 2.08-3.4 1.19-5.26-.43-.87-.46-.9-1.38-.9-1.33 0-1.87-.72-1.11-1.48.57-.57 1.53-.4 2.34.44a5.37 5.37 0 0 1-.24 7.88 5.57 5.57 0 0 1-4.62.99zm164-.11a5.2 5.2 0 0 1-3.03-7.01c.63-1.42 1.73-2.5 2.55-2.5.7 0 1.27.43 1.27.97 0 .58-.43.83-1.42.83-.92 0-.95.02-1.39.92-.9 1.84-.36 4.18 1.2 5.23 2.65 1.79 6 .42 7.7-3.15.58-1.21.62-1.44.6-3.4-.04-3.4-1.16-6.53-5.32-14.87-3.37-6.76-4.18-9-4.54-12.6-.45-4.52.82-7.65 3.67-9a5.68 5.68 0 0 1 4.05-.35c1.97.75 2.84 3.8 1.74 6.1-.4.87-1.11 1.37-1.66 1.2-.97-.3-.56-1.68.67-2.28.54-.26.56-.32.46-1.43-.18-1.94-1.07-2.8-2.9-2.8-2.11 0-4.02 1.6-4.78 4-1 3.18.1 8.12 2.49 11.14 2.55 3.23 6.55 3.46 7.23.42.26-1.13.05-1.74-.71-2.1-1-.48-1.17-1.45-.25-1.45 1.62 0 2.44 2.74 1.41 4.73-.87 1.7-3.15 2.27-5.3 1.32a3.8 3.8 0 0 0-.94-.35c0 .04.76 1.45 1.7 3.14 3.04 5.47 4.23 8.81 4.44 12.48.28 4.79-1.54 8.78-4.75 10.4-1.3.66-2.92.82-4.2.4zM6.23 84.43c-.08-.07-.14-1.73-.14-3.68 0-2.67.07-3.71.3-4.22.26-.62.29-.32.3 3.68 0 3.97-.07 4.62-.46 4.22zm167.06-4.2c.01-4.04.03-4.32.3-3.7.4.91.35 7.85-.05 7.98-.2.07-.25-.87-.25-4.28zM3 81.59c-.06-.22.3-1.27.89-2.6.82-1.84 2.19-5.41 4.13-10.76.41-1.14.76-1.57 1.16-1.42.44.17.42 1.05-.04 1.38-.2.14-.53.76-.73 1.36-1.3 4.02-4.77 12.41-5.12 12.41-.09 0-.22-.17-.28-.37zm172.24-2.58a122.32 122.32 0 0 1-3.65-9.46c-.2-.6-.52-1.22-.73-1.36-.46-.33-.48-1.21-.04-1.38.4-.15.75.28 1.16 1.42 1.94 5.35 3.31 8.92 4.13 10.76.91 2.04 1.1 2.97.6 2.97-.1 0-.75-1.33-1.47-2.95zM6.12 69.25c0-1.9.07-2.74.28-3.1.26-.46.29-.28.28 1.9 0 1.52-.1 2.66-.28 3.1-.25.65-.27.5-.28-1.9zm167.43 1.78c-.14-.46-.25-1.83-.25-3.1.01-2.14.03-2.25.31-1.73.23.42.29 1.13.24 3.1-.05 2.4-.07 2.5-.3 1.73zM6.1 50.45c0-6.76.04-7.72.3-7.72.27 0 .3.93.26 7.64-.05 5.9-.11 7.66-.3 7.72-.2.07-.26-1.55-.26-7.64zm167.33 7.56c-.07-.08-.13-3.54-.13-7.7 0-6.6.04-7.58.3-7.58s.3.99.3 7.7c0 4.24-.08 7.71-.17 7.71a.5.5 0 0 1-.3-.13zM4.25 38.79c-1.19-.71-2.11-1.37-2.06-1.45.15-.24 3.96-2.48 4.21-2.48s4.07 2.24 4.21 2.47c.07.12-3.01 2.15-4.11 2.7-.06.04-1.07-.52-2.25-1.24zm167.18.02c-1.18-.73-2.1-1.39-2.04-1.47.14-.24 3.95-2.48 4.2-2.48.26 0 4.07 2.24 4.22 2.48.05.08-.7.63-1.66 1.2L174 39.87c-.37.24-.64.13-2.56-1.05zM3.87 33.5c-1.52-.8-2.26-2.8-1.8-4.86.43-1.9 1.93-3.02 2.46-1.84.28.61-.14 1.35-1.03 1.8-.53.28-.6.43-.6 1.16 0 1.17.63 2.45 1.37 2.84.81.42 2.35.39 3.34-.06 3.7-1.68 4.5-7.64 1.74-12.9a9.1 9.1 0 0 0-3.39-3.8c-2.43-1.31-4.55-.72-5.03 1.42-.27 1.19-.06 1.78.77 2.2.76.37.92.96.36 1.31-.24.15-.47.14-.82-.04-.99-.53-1.47-2.07-1.13-3.59.57-2.54 2.94-3.48 5.71-2.26.49.22.88.35.88.3 0-.06-.69-1.34-1.53-2.84C2.6 7.75 1.1 4.09.77 1.67L.64.64l1.03.13c2.43.33 6.09 1.83 10.68 4.4 1.5.84 2.78 1.53 2.84 1.53.06 0-.08-.4-.29-.88C13.67 3.05 14.61.68 17.16.1c1.52-.34 3.05.14 3.58 1.13.2.35.2.58.05.82-.36.56-.94.4-1.32-.36-.41-.83-1-1.04-2.2-.77-2.14.48-2.73 2.6-1.4 5.03a9.1 9.1 0 0 0 3.78 3.4c5.27 2.74 11.23 1.94 12.9-1.75.46-1 .49-2.53.07-3.34-.38-.74-1.67-1.36-2.83-1.37-.74 0-.89.07-1.16.6-.46.89-1.2 1.31-1.81 1.03-1.18-.53-.06-2.03 1.84-2.46a5.25 5.25 0 0 1 3.88.64c2 1.41 1.8 5.01-.4 7.2-2.1 2.1-6.21 2.62-11.04 1.39-2.29-.58-3.87-1.25-9.1-3.83-5.55-2.75-8.06-3.88-8.23-3.7-.18.17.95 2.68 3.7 8.23 2.58 5.23 3.25 6.8 3.83 9.09 1.24 4.83.72 8.94-1.38 11.04-1.65 1.64-4.38 2.27-6.05 1.39zm168.4.03c-2.87-1.12-4.2-3.5-4.2-7.52-.01-4.04.73-6.33 4.52-14.12 3.23-6.63 3.82-7.96 3.64-8.14-.17-.17-2.72.98-8.24 3.7-5.22 2.59-6.8 3.26-9.09 3.84-4.83 1.23-8.94.72-11.04-1.39-2.2-2.19-2.4-5.79-.4-7.2a5.25 5.25 0 0 1 3.88-.64c1.9.43 3.02 1.93 1.84 2.46-.61.28-1.35-.14-1.81-1.03-.27-.53-.42-.6-1.16-.6-1.16 0-2.45.63-2.83 1.37-.42.81-.39 2.34.06 3.34 1.68 3.69 7.64 4.5 12.9 1.74a9.1 9.1 0 0 0 3.8-3.4c1.32-2.42.73-4.54-1.41-5.02-1.2-.27-1.79-.06-2.2.77-.38.76-.96.92-1.32.36-.15-.24-.14-.47.05-.82.53-.99 2.06-1.47 3.58-1.13 2.55.57 3.49 2.94 2.26 5.7-.21.5-.35.9-.29.9s1.33-.7 2.84-1.54c4.6-2.57 8.25-4.07 10.68-4.4l1.03-.13-.13 1.03c-.33 2.42-1.83 6.09-4.4 10.68a55.63 55.63 0 0 0-1.53 2.83c0 .06.4-.07.88-.29 2.77-1.22 5.14-.28 5.71 2.26.34 1.52-.14 3.06-1.13 3.59-.35.18-.58.2-.82.04-.56-.35-.4-.94.36-1.32.83-.41 1.04-1 .77-2.2-.48-2.13-2.6-2.72-5.03-1.4a9.1 9.1 0 0 0-3.4 3.79c-2.75 5.26-1.94 11.22 1.75 12.9 1 .45 2.53.48 3.34.06.74-.39 1.36-1.67 1.37-2.84 0-.73-.07-.88-.6-1.15-.9-.46-1.31-1.2-1.03-1.81.53-1.18 2.03-.06 2.46 1.84.3 1.33.03 2.94-.64 3.88-.95 1.33-3.1 1.76-5.03 1zM6.1 24.4c0-6.1.06-7.7.25-7.64.2.06.26 1.83.3 7.72.05 6.7.02 7.64-.24 7.64-.27 0-.3-.96-.3-7.72zm167.24.08c.05-5.9.11-7.66.3-7.72.2-.07.26 1.55.26 7.64 0 6.76-.04 7.72-.3 7.72-.27 0-.3-.93-.26-7.64zm-93.2-11.6c-1.84-.43-3.56-1.83-3.56-2.9 0-.71.44-1.28.98-1.28.58 0 .83.43.83 1.43 0 .91.02.95.89 1.37 1.86.9 4.21.37 5.26-1.18 1.79-2.66.42-6-3.15-7.7-1.21-.58-1.44-.62-3.4-.6-3.41.04-6.54 1.16-14.87 5.31-6.82 3.4-9.14 4.23-12.71 4.55-4.57.4-7.55-.84-8.9-3.68a5.68 5.68 0 0 1-.35-4.04c.74-1.97 3.79-2.84 6.1-1.74.87.4 1.37 1.11 1.2 1.66-.3.96-1.68.56-2.28-.68-.27-.53-.32-.55-1.45-.45-2.05.19-2.91 1.2-2.74 3.24a4.66 4.66 0 0 0 2.36 3.67c1.49.89 2.38 1.1 4.5 1.09 5.15-.04 9.97-2.98 10.71-6.53.38-1.85-.36-3.13-2.05-3.51-1.13-.26-1.74-.05-2.1.71-.48 1-1.45 1.17-1.45.25 0-1.62 2.74-2.43 4.73-1.41 1.7.87 2.28 3.15 1.32 5.29-.23.52-.4.95-.35.95.04 0 1.45-.77 3.14-1.7C68.28 1.96 71.62.77 75.3.56c4.77-.28 8.78 1.54 10.4 4.72 1.37 2.72.52 5.7-2.03 7.06a5.2 5.2 0 0 1-3.53.55zm17.65.04a6.06 6.06 0 0 1-3.17-2.03 5.3 5.3 0 0 1-.3-5.62c1.6-3.17 5.63-5 10.4-4.71 3.66.21 7 1.4 12.48 4.44 1.69.93 3.1 1.7 3.14 1.7.04 0-.12-.43-.35-.95-.6-1.34-.58-3.14.03-4.13 1.4-2.26 6.02-2.07 6.02.25 0 .92-.97.75-1.45-.25-.36-.76-.97-.97-2.1-.71-3.05.68-2.81 4.67.42 7.23 3.02 2.38 7.97 3.49 11.14 2.49 2.4-.76 4-2.67 4-4.78 0-1.83-.86-2.72-2.8-2.9-1.1-.1-1.16-.08-1.43.45-.6 1.24-1.97 1.64-2.28.68-.17-.55.33-1.25 1.2-1.66 2.31-1.1 5.36-.23 6.1 1.74.41 1.07.26 2.74-.35 4.04-1.35 2.84-4.33 4.08-8.9 3.68-3.57-.32-5.89-1.15-12.7-4.55-8.34-4.15-11.47-5.27-14.88-5.3-1.96-.03-2.19.01-3.4.59-3.57 1.7-4.94 5.04-3.15 7.7 1.05 1.55 3.4 2.08 5.26 1.18.87-.42.9-.46.9-1.37 0-1 .24-1.43.82-1.43.54 0 .98.57.98 1.28 0 1.65-3.35 3.4-5.63 2.94zm-60.6-2.47c-.46-.6-2.32-3.84-2.32-4.04 0-.26 2.24-4.07 2.48-4.22.17-.1 2.65 3.86 2.65 4.24 0 .2-2.43 4.27-2.55 4.27-.04 0-.15-.1-.26-.25zm104.05-1.77A15.7 15.7 0 0 1 140 6.43c0-.38 2.48-4.34 2.65-4.24.23.14 2.48 3.96 2.48 4.21s-2.25 4.07-2.48 4.21c-.08.05-.72-.82-1.4-1.93zm-74.4.5c-.16-.4.28-.75 1.42-1.17 5.35-1.94 8.92-3.3 10.76-4.13 2.04-.9 2.97-1.09 2.97-.59 0 .35-8.4 3.81-12.41 5.12-.6.2-1.22.52-1.37.72-.32.46-1.2.49-1.38.04zm44.95-.05c-.15-.2-.76-.53-1.37-.72-4.02-1.3-12.41-4.77-12.41-5.12 0-.5.93-.31 2.97.6 1.84.82 5.41 2.18 10.76 4.12 1.14.42 1.58.77 1.43 1.16-.17.45-1.06.42-1.38-.04zM6.35 8.63c-.13-.3-.25-1-.25-1.54V6.1h1c.54 0 1.24.11 1.54.25.53.24.5.25-.64.35l-1.2.1L6.7 8c-.1 1.14-.1 1.17-.35.64zM173.26 8l-.06-1.2-1.2-.1c-1.15-.1-1.17-.1-.64-.35.3-.14 1-.25 1.55-.25h.99v1.05c-.01.58-.14 1.28-.3 1.55-.26.48-.28.45-.34-.7zM16.85 6.57a.5.5 0 0 1-.14-.3c0-.1 3.47-.17 7.71-.17 6.72 0 7.71.04 7.71.3s-.97.3-7.57.3c-4.17 0-7.64-.06-7.71-.13zm25.9-.17c0-.26.96-.3 7.72-.3 6.1 0 7.7.05 7.64.25-.06.2-1.82.26-7.72.3-6.71.05-7.64.02-7.64-.25zm23.42 0c.37-.2 1.2-.28 3.1-.28 2.4.01 2.55.03 1.9.28-.43.17-1.58.27-3.1.28-2.18 0-2.35-.02-1.9-.28zm10.4-.01c.9-.4 7.84-.34 7.97.06.07.2-.87.25-4.28.24-4.05 0-4.32-.03-3.7-.3zm10.15.01c-.1-.26.35-.3 3.28-.3 2.93 0 3.38.04 3.28.3-.1.25-.66.3-3.28.3-2.62 0-3.18-.05-3.28-.3zm8.74.05c.13-.4 7.07-.45 7.97-.06.63.27.36.3-3.69.3-3.4 0-4.35-.04-4.28-.24zm13.36-.05c-.64-.25-.5-.27 1.9-.28 1.9 0 2.74.07 3.1.28.46.26.29.29-1.9.28-1.51 0-2.66-.1-3.1-.28zm13.15.17a.5.5 0 0 1-.13-.3c0-.1 3.47-.17 7.7-.17 6.72 0 7.71.04 7.71.3s-.97.3-7.57.3c-4.17 0-7.64-.06-7.71-.13zm25.9-.17c0-.26.96-.3 7.72-.3 6.1 0 7.71.05 7.65.25-.07.2-1.83.26-7.73.3-6.71.05-7.64.02-7.64-.25zM83.48 2.28c-.19-.3-.14-.33 2.03-1.1C88.54.09 89.74-.11 91.26.2c1.22.25 5.08 1.55 5.3 1.78.07.06.01.22-.12.35-.19.2-.65.1-2.09-.4C91.01.78 90.23.67 88.43 1.1c-.86.2-2.18.6-2.92.89-1.5.56-1.83.6-2.03.3z"/>
</svg>
